<?xml version="1.0" encoding="UTF-8" standalone="no"?>
<!-- Created with Inkscape (http://www.inkscape.org/) -->

<svg
   xmlns:dc="http://purl.org/dc/elements/1.1/"
   xmlns:cc="http://creativecommons.org/ns#"
   xmlns:rdf="http://www.w3.org/1999/02/22-rdf-syntax-ns#"
   xmlns:svg="http://www.w3.org/2000/svg"
   xmlns="http://www.w3.org/2000/svg"
   xmlns:sodipodi="http://sodipodi.sourceforge.net/DTD/sodipodi-0.dtd"
   xmlns:inkscape="http://www.inkscape.org/namespaces/inkscape"
   width="100"
   height="100"
   id="svg4256"
   version="1.1"
   inkscape:version="0.48.4 r9939"
   sodipodi:docname="1-0-extrude.svg">
  <defs
     id="defs4258">
    <marker
       refX="0"
       refY="0"
       orient="auto"
       id="Arrow1Send"
       style="overflow:visible">
      <path
         inkscape:connector-curvature="0"
         d="M 0,0 5,-5 -12.5,0 5,5 0,0 z"
         transform="matrix(-0.2,0,0,-0.2,-1.2,0)"
         id="path5011"
         style="fill-rule:evenodd;stroke:#000000;stroke-width:1pt" />
    </marker>
  </defs>
  <sodipodi:namedview
     id="base"
     pagecolor="#ffffff"
     bordercolor="#666666"
     borderopacity="1.0"
     inkscape:pageopacity="0.0"
     inkscape:pageshadow="2"
     inkscape:zoom="9.09"
     inkscape:cx="30.528053"
     inkscape:cy="50"
     inkscape:document-units="px"
     inkscape:current-layer="layer1"
     showgrid="false"
     inkscape:window-width="1855"
     inkscape:window-height="1056"
     inkscape:window-x="65"
     inkscape:window-y="24"
     inkscape:window-maximized="1" />
  <metadata
     id="metadata4261">
    <rdf:RDF>
      <cc:Work
         rdf:about="">
        <dc:format>image/svg+xml</dc:format>
        <dc:type
           rdf:resource="http://purl.org/dc/dcmitype/StillImage" />
        <dc:title></dc:title>
      </cc:Work>
    </rdf:RDF>
  </metadata>
  <g
     inkscape:label="Layer 1"
     inkscape:groupmode="layer"
     id="layer1"
     transform="translate(0,-952.36218)">
    <path
       inkscape:connector-curvature="0"
       d="m 45.540113,959.88598 c 0,0 -32.202406,16.83528 -33.300859,42.82442 -0.855912,20.2508 17.737617,32.9054 33.080837,32.9513 15.34322,0.046 37.84047,-6.8352 37.139978,-35.4 -0.469673,-19.15247 -33.399604,-40.19944 -33.399604,-40.19944"
       id="path6000"
       style="fill:#f5f5f5;stroke:#c8c8c8;stroke-width:2px;stroke-linecap:butt;stroke-linejoin:miter;stroke-opacity:1;marker-mid:none;fill-opacity:1"
       sodipodi:nodetypes="cszsc" />
    <path
       inkscape:connector-curvature="0"
       d="m 48.547189,1035.3966 -3.552699,2.0512 -3.55266,2.0511 0,-4.1023 0,-4.1022 3.55266,2.0511 z"
       id="path6406"
       style="fill:#c8c8c8;fill-opacity:1;stroke:#c8c8c8;stroke-width:2;stroke-linecap:round;stroke-miterlimit:4;stroke-opacity:1;stroke-dasharray:none" />
    <path
       inkscape:connector-curvature="0"
       d="m 47.3023,955.91767 c -1.56315,0 -2.84375,1.24935 -2.84375,2.8125 0,1.56315 1.2806,2.84375 2.84375,2.84375 1.56315,0 2.8125,-1.2806 2.8125,-2.84375 0,-1.56315 -1.24935,-2.8125 -2.8125,-2.8125 z"
       id="path4334"
       style="stroke:#000000;stroke-width:3.50832629;stroke-linecap:round;stroke-miterlimit:4;stroke-opacity:1;stroke-dasharray:none" />
    <g
       id="g8436">
      <path
         style="fill:#c8c8c8;fill-opacity:1;stroke:#c8c8c8;stroke-width:2;stroke-linecap:round;stroke-miterlimit:4;stroke-opacity:1;stroke-dasharray:none"
         id="path6406-2"
         d="m 46.644719,1009.3802 -2.0512,-3.5527 -2.05112,-3.5526 4.10232,0 4.10221,0 -2.05111,3.5526 z"
         inkscape:connector-curvature="0" />
      <rect
         y="990.86603"
         x="45.874588"
         height="11.001101"
         width="0.88008803"
         id="rect8434"
         style="fill:#c8c8c8;fill-opacity:1;stroke:#c8c8c8;stroke-width:2;stroke-linecap:round;stroke-miterlimit:4;stroke-opacity:1;stroke-dasharray:none" />
    </g>
  </g>
</svg>
