<?xml version="1.0" encoding="UTF-8" standalone="no"?>
<!-- Created with Inkscape (http://www.inkscape.org/) -->

<svg
   xmlns:dc="http://purl.org/dc/elements/1.1/"
   xmlns:cc="http://creativecommons.org/ns#"
   xmlns:rdf="http://www.w3.org/1999/02/22-rdf-syntax-ns#"
   xmlns:svg="http://www.w3.org/2000/svg"
   xmlns="http://www.w3.org/2000/svg"
   version="1.1"
   width="200"
   height="100"
   id="svg4256">
  <defs
     id="defs4258" />
  <metadata
     id="metadata4261">
    <rdf:RDF>
      <cc:Work
         rdf:about="">
        <dc:format>image/svg+xml</dc:format>
        <dc:type
           rdf:resource="http://purl.org/dc/dcmitype/StillImage" />
        <dc:title></dc:title>
      </cc:Work>
    </rdf:RDF>
  </metadata>
  <g
     transform="translate(0,-952.36218)"
     id="layer1">
    <path
       d="m 63.569243,71.706589 -3.55268,2.05114 -3.55268,2.051141 0,-4.102281 0,-4.102282 3.55268,2.051141 z"
       transform="translate(-2.9488327,931.13346)"
       id="path6406"
       style="fill:#000000;fill-opacity:1;stroke:#000000;stroke-width:2;stroke-linecap:round;stroke-miterlimit:4;stroke-opacity:1;stroke-dasharray:none" />
    <path
       d="m 10.561056,46.974697 a 1.210121,1.210121 0 1 1 -2.4202421,0 1.210121,1.210121 0 1 1 2.4202421,0 z"
       transform="matrix(2.3388842,0,0,2.3388842,-7.9098757,892.76057)"
       id="path4334"
       style="stroke:#000000;stroke-width:1.5;stroke-linecap:round;stroke-miterlimit:4;stroke-opacity:1;stroke-dasharray:none" />
    <path
       d="m 10.561056,46.974697 a 1.210121,1.210121 0 1 1 -2.4202421,0 1.210121,1.210121 0 1 1 2.4202421,0 z"
       transform="matrix(2.3388842,0,0,2.3388842,76.579781,893.19621)"
       id="path4334-7"
       style="stroke:#000000;stroke-width:1.5;stroke-linecap:round;stroke-miterlimit:4;stroke-opacity:1;stroke-dasharray:none" />
    <path
       d="m 13.521439,1002.9501 85.258522,0"
       id="path9962"
       style="fill:none;stroke:#000000;stroke-width:2;stroke-linecap:butt;stroke-linejoin:miter;stroke-miterlimit:4;stroke-opacity:1;stroke-dasharray:none" />
    <path
       d="m 10.561056,46.974697 a 1.210121,1.210121 0 1 1 -2.4202421,0 1.210121,1.210121 0 1 1 2.4202421,0 z"
       transform="matrix(2.3388842,0,0,2.3388842,161.82051,892.98521)"
       id="path4334-7-1"
       style="stroke:#000000;stroke-width:1.5;stroke-linecap:round;stroke-miterlimit:4;stroke-opacity:1;stroke-dasharray:none" />
    <path
       d="m 98.762174,1002.7391 85.258516,0"
       id="path9962-9"
       style="fill:none;stroke:#000000;stroke-width:2;stroke-linecap:butt;stroke-linejoin:miter;stroke-miterlimit:4;stroke-opacity:1;stroke-dasharray:none" />
    <path
       d="m 63.569243,71.706589 -3.55268,2.05114 -3.55268,2.051141 0,-4.102281 0,-4.102282 3.55268,2.051141 z"
       transform="translate(79.768603,931.01446)"
       id="path6406-8"
       style="fill:#000000;fill-opacity:1;stroke:#000000;stroke-width:2;stroke-linecap:round;stroke-miterlimit:4;stroke-opacity:1;stroke-dasharray:none" />
  </g>
</svg>
