<?xml version="1.0" encoding="UTF-8" standalone="no"?>
<!-- Created with Inkscape (http://www.inkscape.org/) -->

<svg
   xmlns:dc="http://purl.org/dc/elements/1.1/"
   xmlns:cc="http://creativecommons.org/ns#"
   xmlns:rdf="http://www.w3.org/1999/02/22-rdf-syntax-ns#"
   xmlns:svg="http://www.w3.org/2000/svg"
   xmlns="http://www.w3.org/2000/svg"
   version="1.1"
   width="100"
   height="100"
   id="svg4256">
  <defs
     id="defs4258" />
  <metadata
     id="metadata4261">
    <rdf:RDF>
      <cc:Work
         rdf:about="">
        <dc:format>image/svg+xml</dc:format>
        <dc:type
           rdf:resource="http://purl.org/dc/dcmitype/StillImage" />
        <dc:title></dc:title>
      </cc:Work>
    </rdf:RDF>
  </metadata>
  <g
     transform="translate(0,-952.36218)"
     id="layer1">
    <path
       d="m 49.021797,963.87184 c 0,0 -32.202406,16.83528 -33.300859,42.82446 -0.855912,20.2508 17.737617,32.9054 33.080837,32.9513 15.34322,0.046 37.84047,-6.8352 37.139978,-35.4 C 85.47208,985.09509 52.542149,964.04812 52.542149,964.04812"
       id="path6000"
       style="fill:#f5f5f5;fill-opacity:1;stroke:#000000;stroke-width:2px;stroke-linecap:butt;stroke-linejoin:miter;stroke-opacity:1;marker-mid:none" />
    <path
       d="m 53.89906,1039.2725 -3.552699,2.0512 -3.55266,2.0511 0,-4.1023 0,-4.1022 3.55266,2.0511 z"
       id="path6406"
       style="fill:#000000;fill-opacity:1;stroke:#000000;stroke-width:2;stroke-linecap:round;stroke-miterlimit:4;stroke-opacity:1;stroke-dasharray:none" />
    <path
       d="m 50.783984,959.90353 c -1.56315,0 -2.84375,1.24935 -2.84375,2.8125 0,1.56315 1.2806,2.84375 2.84375,2.84375 1.56315,0 2.8125,-1.2806 2.8125,-2.84375 0,-1.56315 -1.24935,-2.8125 -2.8125,-2.8125 z"
       id="path4334"
       style="stroke:#000000;stroke-width:3.50832629;stroke-linecap:round;stroke-miterlimit:4;stroke-opacity:1;stroke-dasharray:none" />
    <g
       transform="translate(3.4816842,3.9858573)"
       id="g8436"
       style="fill:#000000;fill-opacity:1;stroke:#000000;stroke-opacity:1">
      <path
         d="m 46.644719,1009.3802 -2.0512,-3.5527 -2.05112,-3.5526 4.10232,0 4.10221,0 -2.05111,3.5526 z"
         id="path6406-2"
         style="fill:#000000;fill-opacity:1;stroke:#000000;stroke-width:2;stroke-linecap:round;stroke-miterlimit:4;stroke-opacity:1;stroke-dasharray:none" />
      <rect
         width="0.88008803"
         height="11.001101"
         x="45.874588"
         y="990.86603"
         id="rect8434"
         style="fill:#000000;fill-opacity:1;stroke:#000000;stroke-width:2;stroke-linecap:round;stroke-miterlimit:4;stroke-opacity:1;stroke-dasharray:none" />
    </g>
  </g>
</svg>
