<?xml version="1.0" encoding="UTF-8" standalone="no"?>
<!-- Created with Inkscape (http://www.inkscape.org/) -->

<svg
   xmlns:dc="http://purl.org/dc/elements/1.1/"
   xmlns:cc="http://creativecommons.org/ns#"
   xmlns:rdf="http://www.w3.org/1999/02/22-rdf-syntax-ns#"
   xmlns:svg="http://www.w3.org/2000/svg"
   xmlns="http://www.w3.org/2000/svg"
   version="1.1"
   width="100"
   height="100"
   id="svg4256">
  <defs
     id="defs4258" />
  <metadata
     id="metadata4261">
    <rdf:RDF>
      <cc:Work
         rdf:about="">
        <dc:format>image/svg+xml</dc:format>
        <dc:type
           rdf:resource="http://purl.org/dc/dcmitype/StillImage" />
        <dc:title></dc:title>
      </cc:Work>
    </rdf:RDF>
  </metadata>
  <g
     transform="translate(0,-952.36218)"
     id="layer1">
    <g
       transform="translate(-0.11749904,-2.1713171)"
       id="g8509">
      <path
         d="m 7.5370786,1002.0627 c 0,0 0.071976,-31.90319 42.5523954,-31.90319 42.480419,0 42.552395,31.90319 42.552395,31.90319 0,0 0.283861,35.2668 -42.579375,35.4191 -42.8632359,0.1524 -42.5254154,-35.4191 -42.5254154,-35.4191 z"
         id="path6000"
         style="fill:#f5f5f5;fill-opacity:1;stroke:#000000;stroke-width:2px;stroke-linecap:butt;stroke-linejoin:miter;stroke-opacity:1;marker-mid:none" />
      <path
         d="m 63.569243,71.706589 -3.55268,2.05114 -3.55268,2.051141 0,-4.102281 0,-4.102282 3.55268,2.051141 z"
         transform="translate(-10.082145,898.44847)"
         id="path6406"
         style="fill:#000000;fill-opacity:1;stroke:#000000;stroke-width:2;stroke-linecap:round;stroke-miterlimit:4;stroke-opacity:1;stroke-dasharray:none" />
      <path
         d="m 10.561056,46.974697 a 1.210121,1.210121 0 1 1 -2.4202421,0 1.210121,1.210121 0 1 1 2.4202421,0 z"
         transform="matrix(2.3388842,0,0,2.3388842,-13.943078,891.75875)"
         id="path4334"
         style="stroke:#000000;stroke-width:1.5;stroke-linecap:round;stroke-miterlimit:4;stroke-opacity:1;stroke-dasharray:none" />
      <path
         d="m 10.561056,46.974697 a 1.210121,1.210121 0 1 1 -2.4202421,0 1.210121,1.210121 0 1 1 2.4202421,0 z"
         transform="matrix(2.3388842,0,0,2.3388842,70.546579,892.19439)"
         id="path4334-7"
         style="stroke:#000000;stroke-width:1.5;stroke-linecap:round;stroke-miterlimit:4;stroke-opacity:1;stroke-dasharray:none" />
    </g>
    <g
       transform="translate(3.4103418,0.97394282)"
       id="g8436"
       style="fill:#000000;fill-opacity:1;stroke:#000000;stroke-opacity:1">
      <path
         d="m 46.644719,1009.3802 -2.0512,-3.5527 -2.05112,-3.5526 4.10232,0 4.10221,0 -2.05111,3.5526 z"
         id="path6406-2"
         style="fill:#000000;fill-opacity:1;stroke:#000000;stroke-width:2;stroke-linecap:round;stroke-miterlimit:4;stroke-opacity:1;stroke-dasharray:none" />
      <rect
         width="0.88008803"
         height="11.001101"
         x="45.874588"
         y="990.86603"
         id="rect8434"
         style="fill:#000000;fill-opacity:1;stroke:#000000;stroke-width:2;stroke-linecap:round;stroke-miterlimit:4;stroke-opacity:1;stroke-dasharray:none" />
    </g>
    <path
       d="m 63.569243,71.706589 -3.55268,2.05114 -3.55268,2.051141 0,-4.102281 0,-4.102282 3.55268,2.051141 z"
       transform="translate(-8.9714585,963.16385)"
       id="path6406-8"
       style="fill:#000000;fill-opacity:1;stroke:#000000;stroke-width:2;stroke-linecap:round;stroke-miterlimit:4;stroke-opacity:1;stroke-dasharray:none" />
  </g>
</svg>
