<svg width="430.0" height="227.0" viewBox="-1.0 10.0 430.0 227.0" version="1.1" xmlns="http://www.w3.org/2000/svg">
      <style type="text/css"><![CDATA[ rect { stroke: black; fill: white; } ]]></style>
      <g transform="translate(33.0,171.5)">
	<g>
	  <rect id="cell-923847351" class="orch-rect expr-cell-empty" x="-33.0" y="-96.0" rx="4" ry="4" width="81.0" height="96.0" style="stroke: black; stroke-width: 2; fill: white"/>
	  <g>
	    <rect id="cell-618509769" class="orch-rect expr-cell-empty" x="-26.0" y="-87.0" rx="4" ry="4" width="62.0" height="72.0" style="stroke: black; stroke-width: 2; fill: white"/>
	    <g>
	      <rect id="cell-1472836103" class="orch-rect expr-cell-empty" x="-19.0" y="-78.0" rx="4" ry="4" width="43.0" height="48.0" style="stroke: black; stroke-width: 2; fill: white"/>
	      <g>
		<rect id="cell-2059867799" class="orch-rect expr-cell-empty" x="-12.0" y="-69.0" rx="4" ry="4" width="24.0" height="24.0" style="stroke: black; stroke-width: 2; fill: white"/>
	      </g>
	    </g>
	  </g>
	</g>
      </g>
      <g transform="translate(127.0,227.0)">
	<g>
	  <rect id="cell-1519377898" class="orch-rect expr-cell-empty" x="-26.0" y="-207.0" rx="4" ry="4" width="72.0" height="207.0" style="stroke: black; stroke-width: 2; fill: white"/><g><rect id="cell-456285209" class="orch-rect expr-cell-empty" x="-19.0" y="-198.0" rx="4" ry="4" width="43.0" height="77.0" style="stroke: black; stroke-width: 2; fill: white"/><g><rect id="cell-121404226" class="orch-rect expr-cell-empty" x="-12.0" y="-189.0" rx="4" ry="4" width="24.0" height="24.0" style="stroke: black; stroke-width: 2; fill: white"/><rect id="cell-331361732" class="orch-rect expr-cell-empty" x="-12.0" y="-160.0" rx="4" ry="4" width="24.0" height="24.0" style="stroke: black; stroke-width: 2; fill: white"/></g><rect id="cell-771533053" class="orch-rect expr-cell-empty" x="-19.0" y="-116.0" rx="4" ry="4" width="53.0" height="48.0" style="stroke: black; stroke-width: 2; fill: white"/><g><rect id="cell-649761185" class="orch-rect expr-cell-empty" x="-12.0" y="-107.0" rx="4" ry="4" width="34.0" height="24.0" style="stroke: black; stroke-width: 2; fill: white"/><g></g></g><rect id="cell-581891300" class="orch-rect expr-cell-empty" x="-19.0" y="-63.0" rx="4" ry="4" width="43.0" height="48.0" style="stroke: black; stroke-width: 2; fill: white"/><g><rect id="cell-206550662" class="orch-rect expr-cell-empty" x="-12.0" y="-54.0" rx="4" ry="4" width="24.0" height="24.0" style="stroke: black; stroke-width: 2; fill: white"/></g></g><path id="edge-2059867799" d="M 0.0 -217.0 V -189.0" class="orch-edge" style="stroke: black; fill: none; stroke-width: 2"/><path id="edge-1472836103" d="M 0.0 -165.0 V -160.0" class="orch-edge" style="stroke: black; fill: none; stroke-width: 2"/><path id="edge-618509769" d="M 0.0 -136.0 V -54.0" class="orch-edge" style="stroke: black; fill: none; stroke-width: 2"/><path id="edge-923847351" d="M 0.0 -30.0 V 10.0" class="orch-edge" style="stroke: black; fill: none; stroke-width: 2"/></g></g><g transform="translate(269.0,176.5)"><g><rect id="cell-1163402682" class="orch-rect expr-cell-empty" x="-76.0" y="-106.0" rx="4" ry="4" width="129.0" height="106.0" style="stroke: black; stroke-width: 2; fill: white"/><g><rect id="cell-470270439" class="orch-rect expr-cell-empty" x="-55.0" y="-68.0" rx="4" ry="4" width="24.0" height="24.0" style="stroke: black; stroke-width: 2; fill: white"/><rect id="cell-1095447313" class="orch-rect expr-cell-empty" x="-12.0" y="-97.0" rx="4" ry="4" width="24.0" height="24.0" style="stroke: black; stroke-width: 2; fill: white"/><rect id="cell-805683860" class="orch-rect expr-cell-empty" x="-12.0" y="-68.0" rx="4" ry="4" width="24.0" height="24.0" style="stroke: black; stroke-width: 2; fill: white"/><rect id="cell-1244240685" class="orch-rect expr-cell-empty" x="17.0" y="-68.0" rx="4" ry="4" width="24.0" height="24.0" style="stroke: black; stroke-width: 2; fill: white"/><rect id="cell-1904921956" class="orch-rect expr-cell-empty" x="-12.0" y="-39.0" rx="4" ry="4" width="24.0" height="24.0" style="stroke: black; stroke-width: 2; fill: white"/></g><path id="edge-121404226" d="M -64.0 -116.0 V -60.0 A 4.0 4.0 0 0 0 -60.0 -56.0 H -55.0" class="orch-edge" style="stroke: black; fill: none; stroke-width: 2"/><path id="edge-331361732" d="M -22.0 -116.0 V -60.0 A 4.0 4.0 0 0 1 -26.0 -56.0 H -31.0" class="orch-edge" style="stroke: black; fill: none; stroke-width: 2"/><path id="edge-456285209" d="M -43.0 -44.0 V -31.0 A 4.0 4.0 0 0 0 -39.0 -27.0 H -12.0" class="orch-edge" style="stroke: black; fill: none; stroke-width: 2"/><path id="edge-649761185" d="M 0.0 -73.0 V -68.0" class="orch-edge" style="stroke: black; fill: none; stroke-width: 2"/><path id="edge-771533053" d="M 0.0 -44.0 V -39.0" class="orch-edge" style="stroke: black; fill: none; stroke-width: 2"/><path id="edge-206550662" d="M 29.0 -116.0 V -68.0" class="orch-edge" style="stroke: black; fill: none; stroke-width: 2"/><path id="edge-581891300" d="M 29.0 -44.0 V -31.0 A 4.0 4.0 0 0 1 25.0 -27.0 H 12.0" class="orch-edge" style="stroke: black; fill: none; stroke-width: 2"/><path id="edge-1519377898" d="M 0.0 -15.0 V 10.0" class="orch-edge" style="stroke: black; fill: none; stroke-width: 2"/></g></g><g transform="translate(376.0,135.5)"><g><rect id="cell-1337105016" class="orch-rect expr-cell-empty" x="-12.0" y="-24.0" rx="4" ry="4" width="24.0" height="24.0" style="stroke: black; stroke-width: 2; fill: white"/><path id="edge-470270439" d="M -36.0 -34.0 V -16.0 A 4.0 4.0 0 0 0 -32.0 -12.0 H -12.0" class="orch-edge" style="stroke: black; fill: none; stroke-width: 2"/><path id="edge-1095447313" d="M -21.0 -34.0 V -16.0 A 4.0 4.0 0 0 0 -17.0 -12.0 H -12.0" class="orch-edge" style="stroke: black; fill: none; stroke-width: 2"/><path id="edge-805683860" d="M 0.0 -34.0 V -24.0" class="orch-edge" style="stroke: black; fill: none; stroke-width: 2"/><path id="edge-1244240685" d="M 21.0 -34.0 V -16.0 A 4.0 4.0 0 0 1 17.0 -12.0 H 12.0" class="orch-edge" style="stroke: black; fill: none; stroke-width: 2"/><path id="edge-1904921956" d="M 36.0 -34.0 V -16.0 A 4.0 4.0 0 0 1 32.0 -12.0 H 12.0" class="orch-edge" style="stroke: black; fill: none; stroke-width: 2"/><path id="edge-1163402682" d="M 0.0 0.0 V 10.0" class="orch-edge" style="stroke: black; fill: none; stroke-width: 2"/></g></g>
    </svg>
